<?xml version="1.0" encoding="utf-8"?>
<!-- Generator: Adobe Illustrator 16.0.0, SVG Export Plug-In . SVG Version: 6.00 Build 0)  -->
<!DOCTYPE svg PUBLIC "-//W3C//DTD SVG 1.1//EN" "http://www.w3.org/Graphics/SVG/1.1/DTD/svg11.dtd">
<svg version="1.1" id="Layer_1" xmlns="http://www.w3.org/2000/svg" xmlns:xlink="http://www.w3.org/1999/xlink" x="0px" y="0px"
	 width="121.34px" height="63.902px" viewBox="0 0 121.34 63.902" enable-background="new 0 0 121.34 63.902" xml:space="preserve">
<g>
	<path opacity="0.2" fill="#383E42" d="M73.051,12.281l-3.365-1.605c-0.086-0.041-0.168-0.088-0.25-0.135
		c-2.709-1.039-5.646-1.609-8.715-1.609c-3.211,0-6.277,0.623-9.086,1.752l-2.744,1.311C41.51,16.1,36.479,23.922,36.318,32.914
		c0.16,9,5.191,16.857,12.572,20.963l2.744,1.33c2.809,1.131,5.875,1.764,9.086,1.764c3.068,0,6.006-0.564,8.715-1.604
		c0.082-0.047,0.164-0.092,0.25-0.133l3.365-1.646c7.107-4.176,11.916-11.674,12.07-20.674
		C84.967,24.127,80.158,16.457,73.051,12.281z"/>
	<circle opacity="0.2" fill="#383E42" cx="60.72" cy="33.348" r="13.323"/>
	<path opacity="0.2" fill="#383E42" d="M114.223,24.25L76.41,6.205C71.797,3.531,66.438,2,60.721,2
		c-5.496,0-10.658,1.416-15.146,3.898L7.117,24.25C1.305,27.023,0.125,30.711,0,32.914c0.125,2,1.305,5.93,7.117,8.703L45.574,60.01
		c4.488,2.482,9.65,3.893,15.146,3.893c5.717,0,11.076-1.543,15.689-4.217l37.812-18.064c5.812-2.773,6.994-6.707,7.117-8.707
		C121.217,30.711,120.035,27.023,114.223,24.25z M10.102,35.365c-1.941-0.926-2.775-1.451-3.059-2.451
		c0.283-0.578,1.117-1.484,3.059-2.41L32.42,19.855c-1.893,3.963-2.971,8.389-3.033,13.059c0.062,5,1.141,9.117,3.033,13.08
		L10.102,35.365z M73.051,53.588l-3.365,1.646c-0.086,0.041-0.168,0.086-0.25,0.133c-2.709,1.039-5.646,1.604-8.715,1.604
		c-3.211,0-6.277-0.633-9.086-1.764l-2.744-1.33c-7.381-4.105-12.412-11.963-12.572-20.963c0.16-8.992,5.191-16.814,12.572-20.92
		l2.744-1.311c2.809-1.129,5.875-1.752,9.086-1.752c3.068,0,6.006,0.57,8.715,1.609c0.082,0.047,0.164,0.094,0.25,0.135l3.365,1.605
		c7.107,4.176,11.916,11.846,12.07,20.633C84.967,41.914,80.158,49.412,73.051,53.588z M111.238,35.344L89.049,45.955
		c1.875-3.949,2.941-8.041,3.004-13.041c-0.062-4.646-1.129-9.051-3.004-13l22.189,10.59c1.941,0.926,2.775,1.832,3.059,2.41
		C114.014,33.914,113.18,34.418,111.238,35.344z"/>
	<path fill="#F04C34" d="M73.051,10.281l-3.365-1.605c-0.086-0.041-0.168-0.088-0.25-0.135c-2.709-1.039-5.646-1.609-8.715-1.609
		c-3.211,0-6.277,0.623-9.086,1.752l-2.744,1.311C41.51,14.1,36.479,21.922,36.318,30.914c0.16,9,5.191,16.857,12.572,20.963
		l2.744,1.33c2.809,1.131,5.875,1.764,9.086,1.764c3.068,0,6.006-0.564,8.715-1.604c0.082-0.047,0.164-0.092,0.25-0.133l3.365-1.646
		c7.107-4.176,11.916-11.674,12.07-20.674C84.967,22.127,80.158,14.457,73.051,10.281z"/>
	<path opacity="0.2" fill="#383E42" d="M48.891,11.994l2.744-1.311c2.809-1.129,5.875-1.752,9.086-1.752
		c3.068,0,6.006,0.57,8.715,1.609c0.082,0.047,0.164,0.094,0.25,0.135l3.365,1.605c6.838,4.018,11.537,11.273,12.021,19.643
		c0.018-0.336,0.043-0.67,0.049-1.01c-0.154-8.787-4.963-16.457-12.07-20.633l-3.365-1.605c-0.086-0.041-0.168-0.088-0.25-0.135
		c-2.709-1.039-5.646-1.609-8.715-1.609c-3.211,0-6.277,0.623-9.086,1.752l-2.744,1.311C41.51,14.1,36.479,21.922,36.318,30.914
		c0.006,0.336,0.033,0.668,0.053,1C36.871,23.346,41.785,15.945,48.891,11.994z"/>
	<circle fill="#F8F4F3" cx="60.72" cy="31.348" r="13.323"/>
	<g opacity="0.2">
		<path fill="#383E42" d="M60.721,44.67c-7.021,0-12.762-5.434-13.273-12.322c-0.025,0.33-0.051,0.662-0.051,1
			c0,7.357,5.965,13.322,13.324,13.322c7.357,0,13.322-5.965,13.322-13.322c0-0.338-0.025-0.67-0.051-1
			C73.48,39.236,67.74,44.67,60.721,44.67z"/>
	</g>
	<path fill="#383E42" d="M114.223,22.25L76.41,4.205C71.797,1.531,66.438,0,60.721,0c-5.496,0-10.658,1.416-15.146,3.898
		L7.117,22.25C1.305,25.023,0.125,28.711,0,30.914c0.125,2,1.305,5.93,7.117,8.703L45.574,58.01
		c4.488,2.482,9.65,3.893,15.146,3.893c5.717,0,11.076-1.543,15.689-4.217l37.812-18.064c5.812-2.773,6.994-6.707,7.117-8.707
		C121.217,28.711,120.035,25.023,114.223,22.25z M10.102,33.365c-1.941-0.926-2.775-1.451-3.059-2.451
		c0.283-0.578,1.117-1.484,3.059-2.41L32.42,17.855c-1.893,3.963-2.971,8.389-3.033,13.059c0.062,5,1.141,9.117,3.033,13.08
		L10.102,33.365z M73.051,51.588l-3.365,1.646c-0.086,0.041-0.168,0.086-0.25,0.133c-2.709,1.039-5.646,1.604-8.715,1.604
		c-3.211,0-6.277-0.633-9.086-1.764l-2.744-1.33c-7.381-4.105-12.412-11.963-12.572-20.963c0.16-8.992,5.191-16.814,12.572-20.92
		l2.744-1.311c2.809-1.129,5.875-1.752,9.086-1.752c3.068,0,6.006,0.57,8.715,1.609c0.082,0.047,0.164,0.094,0.25,0.135l3.365,1.605
		c7.107,4.176,11.916,11.846,12.07,20.633C84.967,39.914,80.158,47.412,73.051,51.588z M111.238,33.344L89.049,43.955
		c1.875-3.949,2.941-8.041,3.004-13.041c-0.062-4.646-1.129-9.051-3.004-13l22.189,10.59c1.941,0.926,2.775,1.832,3.059,2.41
		C114.014,31.914,113.18,32.418,111.238,33.344z"/>
	<g opacity="0.1">
		<path fill="#FFFFFF" d="M7.117,24.5L45.574,6.148c4.488-2.482,9.65-3.898,15.146-3.898c5.717,0,11.076,1.531,15.689,4.205
			L114.223,24.5c4.982,2.377,6.559,5.424,6.986,7.633c0.07-0.355,0.113-0.684,0.131-0.969c-0.123-2.203-1.305-5.891-7.117-8.664
			L76.41,4.455C71.797,1.781,66.438,0.25,60.721,0.25c-5.496,0-10.658,1.416-15.146,3.898L7.117,22.5
			C1.305,25.273,0.125,28.961,0,31.164c0.018,0.285,0.061,0.613,0.133,0.969C0.561,29.924,2.135,26.877,7.117,24.5z"/>
	</g>
</g>
</svg>
