<?xml version="1.0" encoding="utf-8"?>
<!-- Generator: Adobe Illustrator 16.0.0, SVG Export Plug-In . SVG Version: 6.00 Build 0)  -->
<!DOCTYPE svg PUBLIC "-//W3C//DTD SVG 1.1//EN" "http://www.w3.org/Graphics/SVG/1.1/DTD/svg11.dtd">
<svg version="1.1" id="Layer_1" xmlns="http://www.w3.org/2000/svg" xmlns:xlink="http://www.w3.org/1999/xlink" x="0px" y="0px"
	 width="99.717px" height="101.719px" viewBox="0 0 99.717 101.719" enable-background="new 0 0 99.717 101.719"
	 xml:space="preserve">
<g>
	<g opacity="0.2">
		<circle fill="#383E42" cx="49.858" cy="51.859" r="27.405"/>
	</g>
	<path opacity="0.2" fill="#383E42" d="M49.858,7.73c5.959,0,11.738,1.166,17.174,3.467c5.256,2.221,9.975,5.404,14.029,9.459
		s7.237,8.773,9.46,14.027c2.299,5.438,3.465,11.217,3.465,17.176s-1.166,11.738-3.465,17.176c-2.223,5.254-5.405,9.973-9.46,14.027
		s-8.773,7.238-14.029,9.459c-5.436,2.301-11.215,3.467-17.174,3.467s-11.738-1.166-17.174-3.467
		c-5.255-2.221-9.975-5.404-14.029-9.459s-7.237-8.773-9.46-14.027C6.896,63.598,5.73,57.818,5.73,51.859s1.166-11.738,3.465-17.176
		c2.223-5.254,5.405-9.973,9.46-14.027s8.774-7.238,14.029-9.459C38.12,8.896,43.899,7.73,49.858,7.73 M49.858,2
		C22.323,2,0,24.324,0,51.859s22.323,49.859,49.858,49.859s49.858-22.324,49.858-49.859S77.394,2,49.858,2L49.858,2z"/>
	<g>
		<circle fill="#F04C34" cx="49.858" cy="49.859" r="27.405"/>
	</g>
	<g opacity="0.1">
		<g>
			<path fill="#FFFFFF" d="M49.858,24.453c14.801,0,26.853,11.734,27.38,26.406c0.012-0.332,0.025-0.666,0.025-1
				c0-15.135-12.27-27.406-27.405-27.406S22.453,34.725,22.453,49.859c0,0.334,0.014,0.668,0.025,1
				C23.006,36.188,35.058,24.453,49.858,24.453z"/>
		</g>
	</g>
	<path opacity="0.2" fill="#383E42" d="M74.621,48.609H58.363c-0.972-3-3.419-4.523-5.419-5.361V17.855
		c0-1.584-0.918-2.865-2.5-2.865s-2.5,1.281-2.5,2.865v25.301c-4,1.029-7,4.568-7,8.791c0,5.025,3.961,8.987,8.987,8.987
		c4.381,0,7.923-3.325,8.792-7.325h15.898c1.581,0,2.865-0.918,2.865-2.5S76.202,48.609,74.621,48.609z"/>
	<path fill="#383E42" d="M49.858,5.73c5.959,0,11.738,1.166,17.174,3.467c5.256,2.221,9.975,5.404,14.029,9.459
		s7.237,8.773,9.46,14.027c2.299,5.438,3.465,11.217,3.465,17.176s-1.166,11.738-3.465,17.176c-2.223,5.254-5.405,9.973-9.46,14.027
		s-8.773,7.238-14.029,9.459c-5.436,2.301-11.215,3.467-17.174,3.467s-11.738-1.166-17.174-3.467
		c-5.255-2.221-9.975-5.404-14.029-9.459s-7.237-8.773-9.46-14.027C6.896,61.598,5.73,55.818,5.73,49.859s1.166-11.738,3.465-17.176
		c2.223-5.254,5.405-9.973,9.46-14.027s8.774-7.238,14.029-9.459C38.12,6.896,43.899,5.73,49.858,5.73 M49.858,0
		C22.323,0,0,22.324,0,49.859s22.323,49.859,49.858,49.859s49.858-22.324,49.858-49.859S77.394,0,49.858,0L49.858,0z"/>
	<g opacity="0.1">
		<path fill="#FFFFFF" d="M49.858,2c27.2,0,49.299,21.787,49.833,48.859c0.007-0.334,0.025-0.666,0.025-1
			C99.717,22.324,77.394,0,49.858,0S0,22.324,0,49.859c0,0.334,0.019,0.666,0.025,1C0.56,23.787,22.658,2,49.858,2z"/>
	</g>
	<path fill="#383E42" d="M74.621,46.609H58.363c-0.972-3-3.419-4.523-5.419-5.361V15.855c0-1.584-0.918-2.865-2.5-2.865
		s-2.5,1.281-2.5,2.865v25.301c-4,1.029-7,4.568-7,8.791c0,5.025,3.961,8.987,8.987,8.987c4.381,0,7.923-3.325,8.792-7.325h15.898
		c1.581,0,2.865-0.918,2.865-2.5S76.202,46.609,74.621,46.609z"/>
	<g opacity="0.1">
		<path fill="#FFFFFF" d="M50.444,14.99c1.582,0,2.5,1.281,2.5,2.865v-2c0-1.584-0.918-2.865-2.5-2.865s-2.5,1.281-2.5,2.865v2
			C47.944,16.271,48.862,14.99,50.444,14.99z"/>
	</g>
</g>
</svg>
