<?xml version="1.0" encoding="utf-8"?>
<!-- Generator: Adobe Illustrator 16.0.0, SVG Export Plug-In . SVG Version: 6.00 Build 0)  -->
<!DOCTYPE svg PUBLIC "-//W3C//DTD SVG 1.1//EN" "http://www.w3.org/Graphics/SVG/1.1/DTD/svg11.dtd">
<svg version="1.1" id="Layer_1" xmlns="http://www.w3.org/2000/svg" xmlns:xlink="http://www.w3.org/1999/xlink" x="0px" y="0px"
	 width="130.534px" height="95.987px" viewBox="0 0 130.534 95.987" enable-background="new 0 0 130.534 95.987"
	 xml:space="preserve">
<g>
	<path opacity="0.2" fill="#383E42" d="M130.383,31.169c0-10.394-8.426-18.818-18.818-18.818c-4.619,0-8.846,1.667-12.121,4.429
		c-4.094,3.452-6.695,8.615-6.695,14.39c0-5.774-2.604-10.938-6.697-14.39c-3.275-2.762-7.502-4.429-12.121-4.429
		c-10.393,0-18.818,8.425-18.818,18.818c0,4.618,1.539,8.959,4.43,12.122c7.961,8.714,33.207,33.561,33.207,33.561
		s25.246-24.847,33.207-33.561C128.844,40.128,130.383,35.788,130.383,31.169z"/>
	<path fill="#F04C34" d="M130.383,29.503c0-10.394-8.426-18.818-18.818-18.818c-4.619,0-8.846,1.667-12.121,4.429
		c-4.094,3.452-6.695,8.615-6.695,14.39c0-5.774-2.604-10.938-6.697-14.39c-3.275-2.762-7.502-4.429-12.121-4.429
		c-10.393,0-18.818,8.425-18.818,18.818c0,4.618,1.539,8.959,4.43,12.122c7.961,8.714,33.207,33.561,33.207,33.561
		s25.246-24.847,33.207-33.561C128.844,38.462,130.383,34.122,130.383,29.503z"/>
	<path opacity="0.1" fill="#FFFFFF" d="M74.079,11.905c4.619,0,8.848,1.667,12.123,4.429c4.092,3.452,6.695,8.615,6.695,14.39
		c0-5.774,2.604-10.938,6.695-14.39c3.275-2.762,7.504-4.429,12.121-4.429c10.139,0,18.4,8.018,18.801,18.058
		c0.004-0.153,0.02-0.305,0.02-0.459c0-10.394-8.426-18.818-18.82-18.818c-4.617,0-8.846,1.667-12.121,4.429
		c-4.092,3.452-6.695,8.615-6.695,14.39c0-5.774-2.604-10.938-6.695-14.39c-3.275-2.762-7.504-4.429-12.123-4.429
		c-10.393,0-18.818,8.425-18.818,18.818c0,0.154,0.016,0.306,0.02,0.459C55.678,19.922,63.942,11.905,74.079,11.905z"/>
	<g>
		<g>
			<path fill="#383E42" d="M7.942,93.987c-3.199,0-5.686-1.011-6.998-3.122s-1.254-4.778,0.164-7.647l4.844-9.771
				c2.945-5.966,10.617-9.688,16.338-10.18c2.445-0.211,7.012-1.001,10.857-1.895c6.17-1.433,7.59-2.354,7.879-2.599
				c-0.043-2.02-0.795-3.961-2.238-5.781l-0.01-0.012c-6.949-5.32-11.094-14.355-11.094-24.225C27.684,12.9,38.483,0,51.754,0
				s24.068,12.901,24.068,28.757c0,9.868-4.143,18.905-11.092,24.224l-0.01,0.014c-1.445,1.821-2.197,3.767-2.238,5.787
				c0.283,0.243,1.688,1.17,7.801,2.601c3.809,0.894,8.332,1.694,10.756,1.903c5.723,0.496,13.395,4.239,16.336,10.199l4.846,9.809
				c1.418,2.869,1.475,5.46,0.162,7.571s-3.799,3.122-6.998,3.122H7.942z"/>
		</g>
		<g opacity="0.1">
			<path fill="#FFFFFF" d="M5.952,75.507c2.945-5.966,10.617-9.719,16.338-10.21c2.445-0.211,7.012-1.016,10.857-1.909
				c6.17-1.433,7.59-2.361,7.879-2.606c-0.014-0.617-0.102-1.227-0.246-1.828c-0.623,0.386-2.451,1.231-7.633,2.435
				c-3.846,0.894-8.412,1.698-10.857,1.909c-5.721,0.491-13.393,4.244-16.338,10.21l-4.844,9.831
				c-0.918,1.855-1.256,3.674-1.033,5.301c0.137-1.064,0.477-2.176,1.033-3.301L5.952,75.507z"/>
		</g>
		<g opacity="0.1">
			<path fill="#FFFFFF" d="M70.284,63.382c3.809,0.894,8.332,1.694,10.756,1.903c5.723,0.496,13.395,4.239,16.336,10.199
				l4.846,9.809c0.557,1.129,0.896,2.25,1.033,3.326c0.221-1.639-0.117-3.474-1.033-5.326l-4.846-9.809
				c-2.941-5.96-10.613-9.703-16.336-10.199c-2.424-0.209-6.947-1.01-10.756-1.903c-5.129-1.2-6.938-2.044-7.557-2.429
				c-0.145,0.602-0.232,1.211-0.244,1.828C62.766,61.025,64.17,61.952,70.284,63.382z"/>
		</g>
		<g opacity="0.1">
			<path fill="#FFFFFF" d="M51.754,2c12.961,0,23.557,12.307,24.045,27.652c0.008-0.299,0.023-0.596,0.023-0.896
				C75.823,12.901,65.026,0,51.754,0s-24.07,12.9-24.07,28.757c0,0.3,0.016,0.597,0.023,0.896C28.196,14.307,38.793,2,51.754,2z"/>
		</g>
		<g opacity="0.2">
			<path fill="#383E42" d="M102.383,90.865c-1.312,2.111-3.799,3.122-6.998,3.122H7.942c-3.199,0-5.686-1.011-6.998-3.122
				c-0.463-0.746-0.746-1.458-0.869-2.347c-0.213,1.648,0.072,3.003,0.869,4.286c1.312,2.111,3.799,3.183,6.998,3.183h87.443
				c3.199,0,5.686-1.011,6.998-3.122c0.795-1.28,1.08-2.829,0.871-4.488C103.131,89.275,102.848,90.117,102.383,90.865z"/>
		</g>
		<g opacity="0.2">
			<path fill="#383E42" d="M38.788,52.997l-0.01-0.014c-6.738-5.158-10.826-13.813-11.07-23.33
				c-0.012,0.367-0.023,0.734-0.023,1.104c0,9.869,4.145,18.905,11.094,24.226l0.01,0.014c1.002,1.264,1.664,2.589,1.992,3.957
				c0.119-0.074,0.199-0.133,0.246-0.172C40.983,56.762,40.231,54.817,38.788,52.997z"/>
		</g>
		<g opacity="0.2">
			<path fill="#383E42" d="M64.731,52.981l-0.01,0.014c-1.445,1.821-2.197,3.767-2.238,5.787c0.045,0.039,0.125,0.098,0.244,0.172
				c0.328-1.368,0.99-2.694,1.994-3.959l0.01-0.014c6.949-5.318,11.092-14.355,11.092-24.224c0-0.37-0.012-0.737-0.023-1.104
				C75.555,39.168,71.469,47.825,64.731,52.981z"/>
		</g>
	</g>
</g>
</svg>
