<?xml version="1.0" encoding="utf-8"?>
<!-- Generator: Adobe Illustrator 16.0.0, SVG Export Plug-In . SVG Version: 6.00 Build 0)  -->
<!DOCTYPE svg PUBLIC "-//W3C//DTD SVG 1.1//EN" "http://www.w3.org/Graphics/SVG/1.1/DTD/svg11.dtd">
<svg version="1.1" id="Layer_1" xmlns="http://www.w3.org/2000/svg" xmlns:xlink="http://www.w3.org/1999/xlink" x="0px" y="0px"
	 width="70.869px" height="95.396px" viewBox="0 0 70.869 95.396" enable-background="new 0 0 70.869 95.396" xml:space="preserve">
<g>
	<path opacity="0.2" fill="#383E42" d="M57.04,29.965c-0.357-1.101-1.382-1.838-2.538-1.838c-0.003,0-0.005,0-0.005,0l-12.732,0.028
		l-3.899-12.12c-0.355-1.104-1.382-1.854-2.541-1.854s-2.186,0.747-2.54,1.851l-3.9,12.124l-12.729-0.028c0,0-0.005,0-0.008,0
		c-1.155,0-2.181,0.737-2.538,1.838c-0.357,1.102,0.036,2.306,0.976,2.984l10.319,7.452l-3.968,12.095
		c-0.361,1.102,0.03,2.31,0.968,2.99c0.468,0.34,1.019,0.51,1.568,0.51c0.553,0,1.105-0.172,1.575-0.514l10.277-7.512l10.277,7.511
		c0.469,0.343,1.022,0.515,1.575,0.515c0.551,0,1.102-0.17,1.568-0.51c0.938-0.682,1.328-1.89,0.968-2.991l-3.968-12.096
		l10.32-7.453C57.004,32.268,57.398,31.066,57.04,29.965z"/>
	<path fill="#383E42" d="M57.04,27.965c-0.357-1.101-1.382-1.838-2.538-1.838c-0.003,0-0.005,0-0.005,0l-12.732,0.028l-3.899-12.12
		c-0.355-1.104-1.382-1.854-2.541-1.854s-2.186,0.747-2.54,1.851l-3.9,12.124l-12.729-0.028c0,0-0.005,0-0.008,0
		c-1.155,0-2.181,0.737-2.538,1.838c-0.357,1.102,0.036,2.306,0.976,2.984l10.319,7.452l-3.968,12.095
		c-0.361,1.102,0.03,2.31,0.968,2.99c0.468,0.34,1.019,0.51,1.568,0.51c0.553,0,1.105-0.172,1.575-0.514l10.277-7.512l10.277,7.511
		c0.469,0.343,1.022,0.515,1.575,0.515c0.551,0,1.102-0.17,1.568-0.51c0.938-0.682,1.328-1.89,0.968-2.991l-3.968-12.096
		l10.32-7.453C57.004,30.268,57.398,29.066,57.04,27.965z"/>
	<path opacity="0.1" fill="#FFFFFF" d="M16.091,27.448h0.008l12.729,0.199l3.9-12.037c0.354-1.104,1.381-1.809,2.54-1.809
		s2.186,0.772,2.541,1.876l3.899,11.96l12.729-0.189c0.003,0,0.005,0,0.005,0c1.155,0,2.177,0.904,2.537,1.998
		c0.174-0.525,0.184-1.354,0.004-1.908c-0.357-1.101-1.382-2.09-2.538-2.09c0,0-0.005,0-0.008,0l-12.729,0.365L37.81,13.864
		c-0.355-1.104-1.382-1.771-2.541-1.771s-2.186,0.789-2.54,1.893l-3.9,11.809l-12.729-0.346h-0.008
		c-1.155,0-2.181,1.074-2.538,2.176c-0.18,0.553-0.169,1.129,0.004,1.654C13.917,28.184,14.939,27.448,16.091,27.448z"/>
	<path opacity="0.2" fill="#383E42" d="M51.848,66.839l0.006,0.012v1.981c12-5.924,19.008-17.759,19.008-31.397
		c0-0.391-0.016-0.777-0.029-1.165C70.523,49.559,62.916,61.04,51.848,66.839z"/>
	<path opacity="0.2" fill="#383E42" d="M0.303,36.266c-0.014,0.389,0.108,0.777,0.108,1.169c0,13.761,7.442,25.687,19.442,31.557v-2
		C7.854,61.24,0.614,49.672,0.303,36.266z"/>
	<path fill="#F04C34" d="M70.869,35.435C70.869,15.865,55.005,0,35.436,0C15.865,0,0,15.865,0,35.435
		c0,13.761,7.846,25.687,19.307,31.557v11.138v15.268l16.27-12.605l16.291,12.605v-15.06V66.851l-0.013-0.012
		C63.156,60.918,70.869,49.078,70.869,35.435z M47.329,63.089l-11.626-9.635L23.749,63.18c-0.01-0.004-0.019-0.008-0.027-0.012
		c-3.583-1.516-6.803-3.687-9.568-6.452s-4.937-5.984-6.452-9.568C6.133,43.44,5.338,39.5,5.338,35.435s0.795-8.006,2.363-11.714
		c1.516-3.582,3.687-6.802,6.452-9.567c2.766-2.767,5.985-4.937,9.568-6.452c3.707-1.568,7.647-2.363,11.714-2.363
		c4.064,0,8.006,0.795,11.712,2.363c3.584,1.516,6.803,3.686,9.569,6.452c2.765,2.766,4.937,5.985,6.451,9.567
		c1.568,3.708,2.363,7.648,2.363,11.714s-0.795,8.006-2.363,11.713c-1.515,3.584-3.687,6.803-6.451,9.568
		C53.998,59.435,50.84,61.577,47.329,63.089z"/>
	<path opacity="0.1" fill="#FFFFFF" d="M35.436,2C54.614,2,70.224,17.241,70.84,36.27c0.007-0.279,0.029-0.554,0.029-0.835
		C70.869,15.865,55.005,0,35.436,0C15.865,0,0,15.865,0,35.435c0,0.279,0.023,0.554,0.029,0.831C0.647,17.238,16.257,2,35.436,2z"/>
	<polygon opacity="0.2" fill="#383E42" points="19.854,93.396 19.854,95.396 35.843,82.791 51.854,95.396 51.854,93.396 
		35.843,80.791 	"/>
	<path opacity="0.2" fill="#383E42" d="M14.153,16.153c2.766-2.767,5.985-4.937,9.568-6.452c3.707-1.568,7.647-2.363,11.714-2.363
		c4.064,0,8.006,0.795,11.712,2.363c3.584,1.516,6.803,3.686,9.569,6.452c2.765,2.766,4.937,5.985,6.451,9.567
		c1.439,3.402,2.219,7.003,2.339,10.714c0.011-0.333,0.024-0.665,0.024-1c0-4.065-0.795-8.006-2.363-11.714
		c-1.515-3.582-3.687-6.802-6.451-9.567c-2.767-2.767-5.985-4.937-9.569-6.452C43.441,6.133,39.5,5.338,35.436,5.338
		c-4.066,0-8.007,0.795-11.714,2.363c-3.583,1.516-6.803,3.686-9.568,6.452c-2.766,2.766-4.937,5.985-6.452,9.567
		c-1.568,3.708-2.363,7.648-2.363,11.714c0,0.335,0.014,0.667,0.024,1c0.12-3.711,0.899-7.312,2.339-10.714
		C9.217,22.139,11.388,18.919,14.153,16.153z"/>
</g>
</svg>
