<?xml version="1.0" encoding="utf-8"?>
<!-- Generator: Adobe Illustrator 16.0.0, SVG Export Plug-In . SVG Version: 6.00 Build 0)  -->
<!DOCTYPE svg PUBLIC "-//W3C//DTD SVG 1.1//EN" "http://www.w3.org/Graphics/SVG/1.1/DTD/svg11.dtd">
<svg version="1.1" id="Layer_1" xmlns="http://www.w3.org/2000/svg" xmlns:xlink="http://www.w3.org/1999/xlink" x="0px" y="0px"
	 width="239.202px" height="60px" viewBox="0 0 239.202 60" enable-background="new 0 0 239.202 60" xml:space="preserve">
<g>
	<g>
		<path fill="#383E42" d="M0.505,54.094c8.715,5.484,15.989-7.744,19.334-15.408c0.779-4.826,3.602-8.934,9.505-7.928
			c1.648-0.96,5.45-1.56,5.346,1.192c-0.188,3.81-3.274,8.104-4.676,7.983c0,0-1.52-0.33-0.856-1.428
			c0.597-0.977,1.959-4.787,0.397-6.163c-4.688,3.711-5.938,11.895-3.652,15.428c3.249,3.296,8.857-8.031,10.865-10.164
			c0.521-0.667,1.495-0.078,1.495-0.078c-1.583,2.414-9.622,20.316-16.24,12.987c-0.711-0.771-1.332-2.042-1.736-3.528
			C15.838,53.52,9.56,59.874,4.467,59.997C-2.086,60.163,0.505,54.094,0.505,54.094z"/>
		<path fill="#383E42" d="M46.021,34.663c-3.89,0.31-6.772-0.934-4.834-5.082c1.555-3.384,6.419-2.318,8.819,1.687
			c1.896-0.992,4.288-2.537,7.217-4.936c0.111-0.089,0.228-0.142,0.353-0.156c1.742-0.637,5.397-1.104,5.632,0.366
			c0.082,0.516-0.305,1.502-1.66,3.25c-1.115,2.991-2.47,7.366-2.6,11.28c0.892-4.125,3.326-10.398,5.803-12.478l0.211-0.251
			c0.61-0.903,6.236-1.623,6.354-0.363c0.047,0.555-0.364,1.658-2.001,3.742c-0.915,2.667-1.794,6.08-1.701,8.768
			c2.799-3.206,6.911-9.471,7.27-9.854c0.422-0.502,1.051,0.017,1.134,0.268c0.011,0.074-4.8,10.625-7.674,14.144
			c-5.446,4.745-5.23-6.757-5.088-9.548c-1.403,3.553-2.788,7.74-3.14,11.048c0.006,0.036,0.006,0.036,0.054,0.068
			c0.082-0.012-1.521,1.77-2.67,1.917c-0.329,0.041-2.394-0.818-3.188-5.78c-0.41-2.571-0.322-6.22,1.131-11.28
			c-1.207,0.83-2.774,1.515-4.4,2.099c0.365,1.228,0.512,2.672,0.342,4.232c-0.786,7.674-5.897,13.463-11.16,12.26
			c-0.481,0.14-0.821,0.107-1.238-0.14c-3.397-1.591-4.22-9.358-1.397-14.782c0.768-1.487,4.172,0.929,4.184,2.577
			c-1.62,3.507-2.481,7.554-0.522,9.853C42.789,49.849,46.438,41.209,46.021,34.663z M45.599,32.804
			c-0.241-0.456-0.588-0.788-1.057-0.839C43.304,31.824,43.416,33.045,45.599,32.804z"/>
		<path fill="#383E42" d="M82.191,23.891c1.649-0.963,5.45-1.561,5.345,1.189c-0.188,3.812-3.272,8.104-4.675,7.984
			c0,0-1.52-0.33-0.857-1.428c0.599-0.976,1.96-4.786,0.399-6.162c-4.688,3.71-5.938,11.896-3.654,15.427
			c3.25,3.296,8.859-8.031,10.865-10.164c0.523-0.666,1.498-0.078,1.498-0.078c-1.585,2.413-9.623,20.313-16.241,12.985
			C70.914,39.354,70.685,21.91,82.191,23.891z"/>
		<path fill="#383E42" d="M106.825,26.703c-3.022,5.222-5.616,10.765-9.857,15.433c-0.534,0.594-3.08,2.232-3.99,1.26
			c-0.809-0.87-0.465-13.402,1.472-16.499c-0.488,0.101-0.892,0.189-1.343,0.248c-0.316,0.64-2.348,3.673-3.686,5.795
			c0,0-1.46,0.299-0.909-0.71c1.203-2.179,2.828-4.598,3.039-4.849l0.07-0.086c-2.412,0.123-3.708-0.648-0.87-3.338
			c1.714-1.606,2.055-1.837,2.493-1.704c2.589,0.717,9.248-1.933,8.251,0.743c-1.701,4.042-4.417,9.864-4.957,15.407
			c3.046-2.714,8.807-11.512,9.195-11.974C106.26,25.799,106.825,26.703,106.825,26.703z"/>
		<path fill="#383E42" d="M120.179,26.082c0.524-0.666,1.216,0.257,1.216,0.257s-4.331,8.315-6.761,11.738
			c-2.393,3.381-5.778,4.488-7.927,1.014c-6.631-10.813,1.671-18.136,1.671-18.136c2.776-2.567,6.45-1.087,7.699-0.345
			c2.125,0.44,5.609,2.581-7.111,12.681c0.083,3.664,1.743,5.664,4.947,1.318L120.179,26.082z M109.108,31.283
			c6.36-6.887,4.235-8.64,2.886-7.643C110.357,25.725,109.441,28.655,109.108,31.283z"/>
		<path fill="#383E42" d="M133.747,24.686c-1.409,2.466-6.412,13.643-9.006,14.724c-7.821,3.249-7.09-5.806-2.613-21.339
			c-1.495,0.081-2.552,0.026-2.458-0.173c0.628-1.58,0.136-3.09,2.353-3.375l1.191-0.15c0.492-1.64,1.057-3.362,1.612-5.121
			c0.137-0.729,7.676-2.328,6.949-0.325l-2.253,4.525c2.322-0.408,2.791-0.619,2.956-0.638c1.356-0.173-0.071,2.444-0.438,3.28
			c-0.283,0.598-2.089,1.093-4.256,1.444c-3.014,7.62-4.787,14.896-4.827,18.839c0.51,2.672,6.014-7.218,9.534-11.943
			C132.913,23.928,133.628,24.475,133.747,24.686z"/>
		<path fill="#383E42" d="M148.03,22.521c0.522-0.667,1.213,0.259,1.213,0.259s-4.329,8.314-6.758,11.736
			c-2.395,3.383-5.779,4.488-7.928,1.013c-6.631-10.813,1.67-18.137,1.67-18.137c2.775-2.566,6.449-1.086,7.699-0.347
			c2.123,0.442,5.611,2.583-7.111,12.683c0.084,3.665,1.742,5.665,4.947,1.317L148.03,22.521z M136.956,27.725
			c6.361-6.888,4.236-8.641,2.887-7.643C138.206,22.166,137.292,25.095,136.956,27.725z"/>
		<path fill="#383E42" d="M158.182,37.534c3.721-1.113,7.1-1.996,9.816-2.305c4.276-0.51,4.195,1.076,4.414,3.225
			c0.949,8.576-9.301,8.686-16.577,3.28c-2.759,1.102-5.704,2.341-8.695,3.549c20.054,4.071,88.154,10.872,88.148-3.339
			c0.696-0.088,8.021,10.599,0.652,16.678c-5.446,4.483-75.773-5.781-94.91-10.908c-9.792,3.764-19.021,6.594-22.696,4.589
			c-2.164-1.223-2.206-6.468-2.142-8.688c0.012-1.238,0.628-2.105,3.626-2.489c3.855-0.529,10.898,0.782,19.082,2.436
			c4.653-1.307,9.546-2.944,14.135-4.395c-1.501-1.794-2.593-3.903-3.015-6.287c-1.902-10.857,2.702-25.318,3.693-27.507
			c0.124-0.279,0.559-0.446,1.209-0.568c1.567-0.687,3.368-0.429,4.501,0.89c2.699,2.991,1.186,11.095-5.116,16.775
			C152.602,29.36,154.597,34.766,158.182,37.534z M117.672,43.95c2.792,2.531,7.939,2.473,14,1.322
			c-5.586-1.386-10.04-2.242-12.316-2.062C118.57,43.272,118.029,43.567,117.672,43.95z M158.052,9.691
			c-1.128,3.444-2.095,6.829-2.958,9.827C158.616,15.056,158.937,11.301,158.052,9.691z M161.866,39.349
			c2.789,0.658,5.969,0.101,8.943-2.005c-0.463-0.278-0.98-0.361-1.711-0.231C167.341,37.412,164.831,38.221,161.866,39.349z"/>
		<path fill="#383E42" d="M173.431,31.721c-0.421,0.766-3.04,2.226-3.954,1.22c-0.357-0.404-0.733-3.019-0.874-6
			c-1.31,2.566-2.559,4.977-3.158,5.952c-1.467,2.363-4.869,2.575-5.826-0.266c-1.267-4-0.464-11.041,0.394-13.286
			c1.156-2.999,2.522-5.46,4.922-5.654c5.661-0.499,6.39,1.17,5.926,2.729c1.68-0.778,3.932-0.578,4.787-0.198
			c0.623,0.218,0.93,1.08-1.371,3.999c-0.67,2.109-1.308,4.667-1.455,6.897c2.511-2.646,6.631-9.66,7.024-10.084
			c0.526-0.63,1.255,0.251,1.255,0.251C178.6,22.1,176.446,26.2,173.431,31.721z M168.579,23.119
			c0.063-1.695,0.236-3.255,0.545-4.458c0.175-9.132-7.81,7.26-5.374,11.486C164.5,31.438,166.894,25.958,168.579,23.119z"/>
		<path fill="#383E42" d="M191.139,0.363c-2.06,2.848-4.136,7.164-5.668,11.748c15.672-10.253,8.147,23.967-4.404,19.385
			c-4.537-1.632-2.074-23.733,3.249-30.562C186.175,0.248,191.556-0.442,191.139,0.363z M183.455,29.127
			c2.675-0.306,10.109-20.413,1.379-14.987C183.02,19.323,182.845,24.256,183.455,29.127z"/>
	</g>
	<g>
		<path fill="#383E42" d="M23.324,15.263c-2.217,0.637-4.929,1.936-4.676,3.513c-4.669-2.414,2.434-4.141,5.705-4.243
			c0.651-0.021,1.969-0.056,1.728,0.23c-0.253,0.459-2.572,6.356-3.112,10.233c1.034-2.916,3.235-8.603,6.27-9.502
			c0.716-0.213,1.898-0.243,1.624,0.085c-0.259,0.425-2.506,6.167-2.729,9.463c1.834-7.213,6.158-10.109,6.593-8.409
			c0.003,0.015,0.007,0.038-0.004,0.053c-0.315,0.416-2.809,5.982-2.451,8.389c0.989-1.237,2.521-3.505,2.602-3.603
			c0.109-0.087,0.27,0.148,0.294,0.22c0,0-2.102,3.745-2.416,4.25c-0.714,1.164-2.926-0.812-1.315-5.496
			c-0.932,1.583-1.852,3.604-2.936,6.293c-0.927,2.304-2.998-3.056-0.511-8.658c-1.794,2.766-3.655,6.824-4.776,9.712
			C22.12,30.607,19.664,23.258,23.324,15.263z"/>
		<path fill="#383E42" d="M37.848,28.23c0.153-0.152,0.247-0.422,0.296-0.793c0.146-1.045-0.014-3.074,0.119-5.14
			c-2.269,7.135-4.47,0.706-2.79-3.293c0.035-0.209,1.191-0.408,1.905-0.023c0.181,0.1,0.193,0.438-0.397,1.43
			c-0.31,1.481-0.749,2.488-0.706,3.69c0.568-0.535,1.69-2.559,2.139-3.336c0.127-1.003,0.359-2.023,0.732-3.021
			c0.043-0.236,2.497-0.76,2.261-0.106c-0.088,0.221-0.449,0.864-0.449,0.864c-1.412,3.205-1.153,7.383-1.746,10.069
			C39.095,29.121,37.455,28.5,37.848,28.23z"/>
	</g>
	
		<text transform="matrix(1.1159 0.0518 -0.0579 0.9983 190.4224 34.0454)" fill="#383E42" font-family="'PTSans-Caption'" font-size="6.0004">©</text>
</g>
</svg>
